<svg aria-hidden="true" style="position: absolute; width: 0; height: 0; overflow: hidden;" version="1.1" xmlns="http://www.w3.org/2000/svg" xmlns:xlink="http://www.w3.org/1999/xlink">
<defs>
  <symbol id="icon-logo_main-bk" viewBox="0 0 144 32">
  <path d="M0 2.699v21.463l9.129 7.796h6.468v-6.618l-6.529-5.402v-17.239h-9.068z"></path>
  <path d="M74.917 3.91v22.993l4.266 5.055 6.336-0.033v-5.261l-2.591-4.027v-18.727h-8.012z"></path>
  <path d="M54.881 18.652l5.013-5.313h-7.951l-8.551 8.674v-11.339h7.040v-6.684h-7.040v-3.989h-7.58v3.989h-5.116v6.665h5.097v8.030h-5.097l-2.497 2.497v7.51l2.703 3.285h11.551l8.153-7.979h6.543v7.979h5.388v-13.325zM36.196 26.161h-2.905v-2.403h2.905z"></path>
  <path d="M125.362 1.408v6.66h5.013l-7.876 6.425v2.872h6.022l-5.773 5.261v9.326h21.341v-30.545zM129.324 27.907h-3.112v-2.412h3.112z"></path>
  <path d="M112.272 5.571h-10.983v-5.524h-4.938l-5.515 5.735v6.139h2.703v10.922l-2.6 3.942v5.214h6.557l3.792-5.407v-14.672h10.983v-6.35z"></path>
  <path d="M102.829 0.047h3.891v5.942h-3.891v-5.942z"></path>
  <path d="M108.212 0.047h4.060v5.942h-4.060v-5.942z"></path>
  </symbol>
  <symbol id="icon-logo_main-wh" viewBox="0 0 142 32">
  <path fill="#fff" style="fill: var(--color1, #fff)" d="M0.231 2.891v21.153l8.997 7.683h6.374v-6.522l-6.434-5.324v-16.99h-8.937z"></path>
  <path fill="#fff" style="fill: var(--color1, #fff)" d="M74.065 4.084v22.661l4.205 4.982 6.245-0.032v-5.185l-2.553-3.969v-18.456h-7.896z"></path>
  <path fill="#fff" style="fill: var(--color1, #fff)" d="M54.319 18.613l4.94-5.232h-7.836l-8.405 8.544v-11.175h6.938v-6.587h-6.938v-3.932h-7.493v3.932h-5.042v6.568h5.023v7.914h-5.023l-2.461 2.461v7.401l2.664 3.238h11.407l8.035-7.864h6.448v7.864h5.31v-13.132zM35.904 26.014h-2.863v-2.368h2.863z"></path>
  <path fill="#fff" style="fill: var(--color1, #fff)" d="M123.781 1.624v6.559h4.94l-7.78 6.332v2.84h5.935l-5.685 5.185v9.186h21.033v-30.104zM127.667 27.754h-3.067v-2.396h3.067z"></path>
  <path fill="#fff" style="fill: var(--color1, #fff)" d="M110.881 5.722h-10.824v-5.444h-4.866l-5.435 5.652v6.050h2.664v10.764l-2.563 3.886v5.139h6.462l3.737-5.329v-14.46h10.824v-6.258z"></path>
  <path fill="#fff" style="fill: var(--color1, #fff)" d="M101.574 0.278h3.835v5.856h-3.835v-5.856z"></path>
  <path fill="#fff" style="fill: var(--color1, #fff)" d="M106.879 0.278h4.001v5.856h-4.001v-5.856z"></path>
  </symbol>
  <symbol id="icon-logo_text" viewBox="0 0 252 32">
  <path fill="#fff" style="fill: var(--color1, #fff)" d="M106.879 0.278h4.001v5.856h-4.001v-5.856z"></path>
  </symbol>
<symbol id="icon-comb" viewBox="0 0 32 32">
<path d="M6.885 32c-0.279-0.003-0.531-0.119-0.711-0.305l-0-0-5.271-5.26c-0.559-0.561-0.904-1.335-0.904-2.19s0.345-1.629 0.904-2.19l21.153-21.153c0.556-0.558 1.325-0.903 2.175-0.903 0.005 0 0.011 0 0.016 0h-0.001c0.007-0 0.015-0 0.023-0 0.844 0 1.607 0.345 2.156 0.903l5.272 5.272c0.186 0.181 0.302 0.432 0.305 0.711v0.001c-0.012 0.556-0.46 1.004-1.015 1.016l-0.001 0c-0.279-0.003-0.531-0.119-0.711-0.305l-0-0-4.876-4.865c-0.204-0.243-0.443-0.449-0.71-0.614l-0.013-0.007c-0.118-0.057-0.258-0.091-0.404-0.091-0.009 0-0.017 0-0.026 0l0.001-0c-0.002 0-0.004 0-0.005 0-0.294 0-0.56 0.121-0.751 0.316l-21.164 21.153c-0.182 0.188-0.294 0.445-0.294 0.728 0 0.144 0.029 0.282 0.082 0.407l-0.003-0.007c0.173 0.287 0.379 0.533 0.617 0.742l0.003 0.003 4.865 4.865c0.186 0.181 0.302 0.432 0.305 0.711v0.001c0 0.561-0.455 1.016-1.016 1.016v0z"></path>
<path d="M23.433 4.696l4.876 4.876c0.102 0.1 0.241 0.161 0.395 0.161s0.293-0.062 0.395-0.161l-0 0c0.103-0.102 0.167-0.244 0.167-0.401s-0.064-0.298-0.167-0.401l-0-0-4.876-4.865z"></path>
<path d="M21.661 6.468l4.865 4.876c0.102 0.103 0.244 0.167 0.401 0.167s0.298-0.064 0.401-0.167l0-0c0.1-0.102 0.161-0.241 0.161-0.395s-0.062-0.293-0.161-0.395l0 0-4.876-4.91z"></path>
<path d="M19.877 8.251l4.876 4.865c0.101 0.101 0.241 0.164 0.395 0.164 0.309 0 0.559-0.25 0.559-0.559 0-0.154-0.063-0.294-0.164-0.395v0l-4.865-4.876z"></path>
<path d="M18.060 10.023l4.876 4.876c0.102 0.1 0.241 0.161 0.395 0.161s0.293-0.062 0.395-0.161l-0 0c0.103-0.102 0.167-0.244 0.167-0.401s-0.064-0.298-0.167-0.401l-0-0-4.82-4.865z"></path>
<path d="M16.333 11.795l4.865 4.876c0.104 0.1 0.245 0.162 0.401 0.162s0.297-0.062 0.401-0.163l-0 0c0.1-0.102 0.161-0.241 0.161-0.395s-0.062-0.293-0.161-0.395l-4.876-4.876z"></path>
<path d="M14.55 13.545l4.876 4.865c0.102 0.103 0.244 0.167 0.401 0.167s0.298-0.064 0.401-0.167l0-0c0.1-0.102 0.161-0.241 0.161-0.395s-0.062-0.293-0.161-0.395l0 0-4.876-4.842z"></path>
<path d="M12.777 15.351l4.876 4.876c0.102 0.1 0.241 0.161 0.395 0.161s0.293-0.062 0.395-0.161l-0 0c0.103-0.102 0.167-0.244 0.167-0.401s-0.064-0.298-0.167-0.401l-0-0-4.899-4.865z"></path>
<path d="M11.005 17.123l4.876 4.876c0.101 0.101 0.241 0.164 0.395 0.164 0.309 0 0.559-0.25 0.559-0.559 0-0.154-0.063-0.294-0.164-0.395l-4.876-4.876z"></path>
<path d="M9.233 18.907l4.865 4.865c0.102 0.103 0.244 0.167 0.401 0.167s0.298-0.064 0.401-0.167l0-0c0.1-0.102 0.161-0.241 0.161-0.395s-0.062-0.293-0.161-0.395l0 0-4.876-4.921z"></path>
<path d="M7.45 20.679l4.876 4.876c0.102 0.1 0.241 0.161 0.395 0.161s0.293-0.062 0.395-0.161l-0 0c0.103-0.102 0.167-0.244 0.167-0.401s-0.064-0.298-0.167-0.401l-0-0-4.865-4.876z"></path>
<path d="M5.644 22.451l4.876 4.876c0.102 0.1 0.241 0.161 0.395 0.161s0.293-0.062 0.395-0.161l-0 0c0.1-0.104 0.162-0.245 0.162-0.401s-0.062-0.297-0.162-0.401l0 0-4.842-4.865z"></path>
<path d="M3.905 24.234l4.865 4.865c0.102 0.103 0.244 0.167 0.401 0.167s0.298-0.064 0.401-0.167l0-0c0.1-0.102 0.161-0.241 0.161-0.395s-0.062-0.293-0.161-0.395l-4.876-4.876z"></path>
</symbol>
<symbol id="icon-girl" viewBox="0 0 36 32">
<path fill="#000" style="fill: var(--color1, #000)" d="M7.258 29.508c-0.593-0.789-0.992-1.755-1.109-2.806l-0.002-0.026c-0.268-1.429-0.422-3.073-0.422-4.753 0-2.673 0.389-5.255 1.113-7.693l-0.049 0.191c7.984 0.739 13.122 1.272 21.023 2.010 0.501 3 0.996 6.108 0.218 9.044s-3.212 5.684-6.218 5.826c1.349-0.064 2.813 0.803 4.31 0.687 1.682-0.14 3.215-0.676 4.537-1.514l-0.041 0.024c2.768-1.728 3.854-4.74 4.657-7.811 0.507-1.899 0.798-4.079 0.798-6.327 0-3.027-0.528-5.93-1.496-8.624l0.056 0.178c-1.509-4.156-5.004-7.419-9.526-7.849-0.371-0.021-0.805-0.033-1.241-0.033-2.238 0-4.403 0.317-6.45 0.909l0.164-0.040c-3.803 0.893-7.599 2.030-10.919 4.034-5.601 3.327-6.391 9.699-6.661 16.206-0.116 2.935 0.495 6.063 2.499 8.196 1.651 1.76 4.875 2.845 6.937 1.407-0.843-0.268-1.571-0.69-2.183-1.238l0.006 0.005z"></path>
<path fill="#000" style="fill: var(--color1, #000)" d="M19.038 18.126c0.019 0.071 0.030 0.153 0.030 0.238 0 0.219-0.074 0.42-0.199 0.58l0.002-0.002c-0.193 0.211-0.46 0.353-0.759 0.385l-0.005 0c-0.077 0.024-0.166 0.038-0.258 0.038-0.5 0-0.906-0.405-0.906-0.906 0-0.068 0.007-0.134 0.022-0.198l-0.001 0.006c0.019-0.273 0.085-0.527 0.192-0.759l-0.006 0.013c0.482-0.938 1.683-0.173 1.882 0.578z"></path>
<path fill="#000" style="fill: var(--color1, #000)" d="M9.519 17.863c-0.085-0.153-0.135-0.336-0.135-0.531 0-0.421 0.234-0.787 0.579-0.976l0.006-0.003c0.088-0.023 0.189-0.037 0.294-0.037 0.367 0 0.694 0.166 0.912 0.427l0.002 0.002c0.276 0.259 0.452 0.621 0.469 1.025l0 0.003c-0.017 0.526-0.448 0.945-0.976 0.945-0.080 0-0.158-0.010-0.232-0.028l0.007 0.001c-0.385-0.107-0.697-0.362-0.876-0.699l-0.004-0.008c-0.013-0.058-0.032-0.090-0.045-0.122z"></path>
<path fill="#000" style="fill: var(--color1, #000)" d="M14.394 21.055c-0.218-0.049-0.404-0.16-0.545-0.314l-0.001-0.001c-0.156-0.264-0.248-0.583-0.248-0.922 0-0.044 0.002-0.087 0.005-0.13l-0 0.006c-0.015-0.173-0.024-0.375-0.024-0.578s0.009-0.405 0.026-0.604l-0.002 0.026c0.039-0.572 0.090-1.15 0.148-1.721 0.039-0.366 0.084-0.726 0.128-1.092 0.031-0.357 0.093-0.685 0.183-1.001l-0.009 0.037c0.022-0.083 0.089-0.145 0.172-0.16l0.001-0c0.060 0.003 0.113 0.032 0.147 0.077l0 0c0.035 0.043 0.060 0.095 0.070 0.152l0 0.002c0.044 0.207 0.069 0.446 0.069 0.69 0 0.144-0.009 0.286-0.026 0.425l0.002-0.017c0 0.726-0.071 1.452-0.135 2.184 0 0.36-0.058 0.726-0.090 1.085-0.019 0.103-0.030 0.221-0.030 0.341 0 0.227 0.039 0.446 0.112 0.648l-0.004-0.013c0.072 0.19 0.23 0.332 0.426 0.378l0.004 0.001c0.338 0.047 0.636 0.187 0.876 0.394l-0.002-0.002c0.199 0.212-0.051 0.257-0.225 0.263-0.234-0.007-0.457-0.032-0.675-0.075l0.026 0.004c-0.145-0.021-0.273-0.050-0.397-0.088l0.018 0.005z"></path>
<path fill="#fff" style="fill: var(--color2, #fff)" d="M25.757 6.757c0.533 1.285 1.118 2.486 1.741 3.7-0.096-0.18-1.805-0.18-2.055-0.18s-1.876 0.096-2.004-0.186c-0.225-0.495 1.965-2.878 2.319-3.334z"></path>
<path fill="#fff" style="fill: var(--color2, #fff)" d="M29.482 10.027c0.316-0.048 0.681-0.075 1.052-0.075 0.208 0 0.415 0.009 0.619 0.025l-0.027-0.002c-0.822 0.886-1.246 2.132-2.222 2.871-0.559-0.552-1.599-1.734-1.497-2.569 0.713 0 1.381-0.141 2.075-0.251z"></path>
<path fill="#000" style="fill: var(--color1, #000)" d="M14.529 23.573c-0.098 0.042-0.183 0.094-0.259 0.156l0.002-0.002c-0.063 0.048-0.105 0.122-0.109 0.205l-0 0.001c0 0.199 0.238 0.334 0.572 0.366 0.056 0.003 0.121 0.005 0.187 0.005 0.328 0 0.647-0.041 0.95-0.12l-0.026 0.006c0.531-0.096 1.001-0.303 1.403-0.598l-0.009 0.007c1.272-1.118-1.965-0.385-2.711-0.026z"></path>
</symbol>
<symbol id="icon-logo" viewBox="0 0 123 32">
<path d="M54.141 13.381c-0.001 0-0.002 0-0.003 0-0.547 0-1.046 0.209-1.421 0.551l0.002-0.001c-0.392 0.329-0.665 0.789-0.751 1.312l-0.002 0.013c-0.026 0.105-0.040 0.226-0.040 0.351 0 0.36 0.123 0.691 0.329 0.955l-0.003-0.003c0.278 0.333 0.693 0.543 1.158 0.543 0.024 0 0.048-0.001 0.072-0.002l-0.003 0c0.014 0 0.032 0.001 0.049 0.001 0.544 0 1.039-0.206 1.413-0.544l-0.002 0.002c0.388-0.335 0.659-0.796 0.751-1.319l0.002-0.014c0.024-0.103 0.038-0.221 0.038-0.343 0-0.377-0.134-0.722-0.356-0.992l0.002 0.003c-0.277-0.316-0.682-0.515-1.134-0.515-0.035 0-0.070 0.001-0.105 0.004l0.005-0z"></path>
<path d="M52.583 22.216c-0.001 0-0.002 0-0.003 0-0.546 0-1.044 0.206-1.421 0.544l0.002-0.002c-0.393 0.331-0.666 0.794-0.751 1.32l-0.002 0.012c-0.023 0.101-0.036 0.216-0.036 0.335 0 0.377 0.133 0.722 0.355 0.992l-0.002-0.003c0.278 0.342 0.699 0.558 1.17 0.558 0.020 0 0.040-0 0.060-0.001l-0.003 0c0.001 0 0.003 0 0.004 0 0.548 0 1.047-0.212 1.42-0.558l-0.001 0.001c0.391-0.334 0.664-0.795 0.758-1.318l0.002-0.014c0.023-0.102 0.037-0.219 0.037-0.339 0-0.378-0.133-0.725-0.355-0.996l0.002 0.003c-0.278-0.329-0.691-0.537-1.152-0.537-0.029 0-0.058 0.001-0.086 0.002l0.004-0z"></path>
<path d="M121.212 11.575c-1.874-2.566-4.621-3.861-8.158-3.861-3.716 0.002-7.086 1.483-9.553 3.886l0.003-0.003c-2.373 2.125-4.043 4.992-4.645 8.233l-0.014 0.090c-0.141 0.646-0.222 1.389-0.222 2.15 0 2.381 0.79 4.578 2.122 6.343l-0.019-0.027c1.806 2.401 4.516 3.612 8.045 3.612 0.032 0 0.070 0 0.108 0 3.553 0 6.786-1.374 9.195-3.62l-0.008 0.007c2.473-2.139 4.219-5.059 4.855-8.374l0.015-0.092c0.151-0.669 0.237-1.436 0.237-2.224 0-2.297-0.735-4.422-1.982-6.153l0.021 0.031zM120.843 19.989c-0.368 1.964-1.16 3.698-2.28 5.17l0.022-0.030c-1.124 1.537-2.554 2.782-4.208 3.663l-0.067 0.032c-1.505 0.801-3.289 1.273-5.183 1.279h-0.002c-0.053 0.001-0.116 0.002-0.18 0.002-1.7 0-3.286-0.485-4.628-1.325l0.037 0.021c-1.369-0.872-2.417-2.141-2.993-3.644l-0.017-0.051c-0.38-0.991-0.6-2.138-0.6-3.337 0-0.638 0.062-1.261 0.181-1.864l-0.010 0.061c0.538-2.945 2.058-5.466 4.203-7.27l0.019-0.015c1.981-1.841 4.636-2.98 7.558-3.010l0.006-0c0.083-0.003 0.18-0.005 0.278-0.005 2.514 0 4.754 1.172 6.205 2.999l0.013 0.016c1.161 1.469 1.862 3.347 1.862 5.389 0 0.68-0.078 1.342-0.225 1.978l0.011-0.059z"></path>
<path d="M32.843 7.714c-3.703 0.010-7.058 1.49-9.516 3.886l0.003-0.003c-2.375 2.125-4.047 4.991-4.652 8.233l-0.014 0.091c-0.143 0.648-0.224 1.393-0.224 2.157 0 2.381 0.794 4.576 2.132 6.336l-0.019-0.026c1.806 2.401 4.516 3.612 8.038 3.612 0.034 0 0.074 0 0.114 0 3.551 0 6.782-1.374 9.189-3.62l-0.008 0.007c2.475-2.137 4.222-5.058 4.855-8.375l0.015-0.092c0.152-0.671 0.239-1.442 0.239-2.233 0-2.293-0.733-4.415-1.977-6.145l0.021 0.031c-1.904-2.544-4.651-3.861-8.196-3.861zM40.64 19.989c-0.368 1.964-1.16 3.698-2.28 5.17l0.022-0.030c-1.126 1.537-2.559 2.782-4.215 3.663l-0.067 0.032c-1.51 0.806-3.303 1.279-5.207 1.279-0.003 0-0.006 0-0.009 0h0c-0.071 0.002-0.154 0.003-0.238 0.003-1.688 0-3.264-0.477-4.601-1.304l0.038 0.022c-1.372-0.869-2.421-2.139-2.993-3.644l-0.017-0.051c-0.382-0.989-0.603-2.134-0.603-3.331 0-0.64 0.063-1.265 0.184-1.87l-0.010 0.061c0.534-2.944 2.053-5.466 4.196-7.27l0.019-0.015c1.985-1.838 4.642-2.977 7.564-3.010l0.007-0c0.081-0.003 0.175-0.005 0.27-0.005 2.514 0 4.754 1.172 6.204 2.999l0.013 0.016c1.193 1.484 1.914 3.391 1.914 5.466 0 0.644-0.070 1.272-0.202 1.877l0.011-0.058z"></path>
<path d="M83.936 13.005l0.753-4.049h-2.1l-4.064 23.044h2.1l2.16-12.5c0.624-2.734 2.083-5.060 4.091-6.758l0.018-0.015c1.983-1.843 4.641-2.982 7.565-3.010l0.006-0 0.354-1.964c-3.714 0.002-7.081 1.483-9.546 3.886l0.003-0.003c-0.478 0.43-0.915 0.877-1.323 1.351l-0.016 0.019z"></path>
<path d="M7.323 8.956l1.58-8.956h-2.032l-1.573 8.956h-5.012l-0.286 1.611h5.012l-3.778 21.434h2.032l3.778-21.434h8.79l0.286-1.611h-8.798z"></path>
<path d="M63.436 32h2.024l4.072-23.044h-2.032l-4.064 23.044z"></path>
<path d="M70.081 0c-0.543 0.005-1.036 0.212-1.409 0.551l0.002-0.002c-0.394 0.333-0.668 0.799-0.751 1.327l-0.002 0.012c-0.024 0.1-0.037 0.214-0.037 0.332 0 0.374 0.136 0.716 0.362 0.98l-0.002-0.002c0.27 0.345 0.686 0.565 1.153 0.565 0.007 0 0.015-0 0.022-0h-0.001c0.552-0 1.055-0.212 1.431-0.558l-0.001 0.001c0.39-0.325 0.662-0.779 0.751-1.297l0.002-0.013c0.031-0.116 0.049-0.248 0.049-0.385 0-0.365-0.126-0.7-0.337-0.965l0.002 0.003c-0.278-0.338-0.696-0.551-1.164-0.551-0.025 0-0.049 0.001-0.074 0.002l0.003-0z"></path>
</symbol>
<symbol id="icon-scissors" viewBox="0 0 30 32">
<path d="M13.771 17.655l-0.348 0.781-5.775 13.046c-0.022 0.045-0.035 0.097-0.035 0.153 0 0.14 0.083 0.261 0.203 0.316l0.002 0.001c0.049 0.026 0.106 0.042 0.168 0.042 0.133 0 0.25-0.073 0.311-0.181l0.001-0.002c0.226-0.386 5.954-10.714 5.954-10.714l0.8-2.935z"></path>
<path d="M14.42 17.505l-2.991 0.499-11.212 4.957c-0.128 0.053-0.217 0.177-0.217 0.322 0 0.050 0.011 0.098 0.030 0.141l-0.001-0.002c0.055 0.138 0.187 0.233 0.342 0.233 0.039 0 0.077-0.006 0.112-0.018l-0.003 0.001 14.335-4.844z"></path>
<path d="M21.634 0.292c0.31 0.441 0.496 0.989 0.496 1.58 0 0.683-0.248 1.309-0.659 1.792l0.003-0.004c0.072 0.084 0.143 0.176 0.209 0.271l0.007 0.011c0.383 0.54 0.612 1.213 0.612 1.939 0 1.769-1.361 3.221-3.093 3.365l-0.012 0.001-4.148 8.917-1.524 0.066 4.317-9.162c-0.551-0.2-1.016-0.523-1.379-0.937l-0.003-0.004-0.282-0.348c-0.36-0.53-0.575-1.184-0.575-1.888 0-1.87 1.516-3.386 3.386-3.386 0.52 0 1.012 0.117 1.452 0.326l-0.020-0.009c0.237-0.253 0.383-0.595 0.383-0.971 0-0.302-0.094-0.582-0.255-0.812l0.003 0.005c-0.078-0.108-0.124-0.242-0.124-0.388 0-0.229 0.115-0.431 0.291-0.551l0.002-0.001c0.107-0.076 0.24-0.121 0.384-0.121 0.194 0 0.369 0.083 0.491 0.215l0 0zM17.411 7.252c0.374 0.404 0.907 0.656 1.499 0.656 0.447 0 0.861-0.144 1.197-0.387l-0.006 0.004c0.524-0.372 0.862-0.978 0.862-1.662 0-0.434-0.136-0.837-0.368-1.167l0.004 0.006c-0.052-0.082-0.105-0.152-0.162-0.219l0.002 0.002c-0.375-0.413-0.914-0.672-1.513-0.672-1.127 0-2.041 0.914-2.041 2.041 0 0.442 0.141 0.851 0.38 1.186l-0.004-0.006c0.054 0.081 0.11 0.152 0.171 0.218l-0.001-0.001z"></path>
<path d="M29.507 12.463c0.621 0.614 1.005 1.466 1.005 2.408 0 1.87-1.516 3.386-3.386 3.386-0.9 0-1.717-0.351-2.324-0.923l0.002 0.002c-0.117-0.096-0.222-0.197-0.317-0.307l-0.003-0.003c-0.37-0.397-0.642-0.889-0.776-1.436l-0.005-0.022-9.491 3.443 0.207-1.505 9.256-3.349c0.118-0.618 0.394-1.157 0.784-1.593l-0.003 0.003c0.628-0.717 1.544-1.168 2.567-1.168 0.812 0 1.558 0.284 2.143 0.759l-0.006-0.005 0.32 0.31zM25.5 16.122c0.058 0.064 0.12 0.123 0.185 0.176l0.003 0.002c0.365 0.352 0.863 0.57 1.411 0.57 1.122 0 2.032-0.91 2.032-2.032 0-0.574-0.238-1.093-0.621-1.462l-0.001-0.001c-0.059-0.070-0.124-0.132-0.195-0.186l-0.003-0.002c-0.351-0.293-0.806-0.47-1.303-0.47-1.127 0-2.041 0.914-2.041 2.041 0 0.525 0.198 1.004 0.524 1.366l-0.002-0.002z"></path>
</symbol>
<symbol id="icon--1" viewBox="0 0 100 32">
<path fill="#fff" style="fill: var(--color2, #fff)" d="M0.895 24.534c0.45 0.062 0.829 0.323 1.049 0.691l0.004 0.007 0.704 0.983c0.595 0.76 1.454 1.29 2.437 1.451l0.022 0.003c0.256 0.067 0.551 0.106 0.854 0.106 0.035 0 0.070-0.001 0.105-0.002l-0.005 0c0.002 0 0.004 0 0.005 0 0.354 0 0.696-0.047 1.022-0.134l-0.027 0.006c0.582-0.14 0.89-0.401 0.861-0.785s-0.448-0.802-1.337-1.053c-0.72-0.194-1.338-0.426-1.928-0.709l0.067 0.029c-0.966-0.422-1.798-0.914-2.56-1.493l0.031 0.022c-1.047-0.798-1.716-2.046-1.716-3.45 0-0.085 0.002-0.17 0.007-0.254l-0.001 0.012c-0.002-0.055-0.003-0.12-0.003-0.186 0-1.304 0.503-2.491 1.326-3.376l-0.003 0.003c0.678-0.727 1.534-1.279 2.5-1.588l0.041-0.011c0.704-0.236 1.515-0.376 2.357-0.384l0.004-0c0.912 0.031 1.771 0.223 2.561 0.547l-0.049-0.018c0.194 0.091 0.419 0.151 0.657 0.168l0.006 0c0.007 0 0.014 0 0.022 0 0.134 0 0.259-0.039 0.364-0.107l-0.003 0.002 0.279-0.186c0.117-0.091 0.263-0.15 0.422-0.163l0.003-0c0.366 0 0.762 0.297 1.163 0.907 0.208 0.29 0.402 0.62 0.565 0.967l0.016 0.039c0.277 0.505 0.459 1.099 0.505 1.73l0.001 0.014c0 1.163-0.454 1.744-1.349 1.744-0.011 0-0.023 0-0.036 0-0.435 0-0.821-0.206-1.066-0.526l-0.002-0.003-0.506-0.581c-0.659-0.751-1.621-1.222-2.692-1.222-0.033 0-0.065 0-0.098 0.001l0.005-0c-0.028-0.002-0.061-0.003-0.094-0.003-0.35 0-0.675 0.103-0.948 0.28l0.007-0.004c-0.318 0.203-0.528 0.55-0.541 0.946l-0 0.002c0 0.581 0.523 0.994 1.558 1.239 0.68 0.167 1.232 0.336 1.77 0.532l-0.119-0.038c0.877 0.295 1.628 0.635 2.338 1.040l-0.064-0.034q1.989 1.082 1.989 3.646c0.001 0.035 0.001 0.075 0.001 0.116 0 0.817-0.185 1.591-0.515 2.283l0.014-0.032c-0.332 0.69-0.787 1.271-1.341 1.738l-0.008 0.006c-0.585 0.5-1.276 0.896-2.032 1.15l-0.044 0.013c-0.77 0.262-1.657 0.414-2.579 0.414-0.048 0-0.096-0-0.144-0.001l0.007 0c-0.504-0.003-0.996-0.035-1.481-0.093l0.062 0.006c-0.628-0.065-1.198-0.18-1.748-0.343l0.068 0.017c-0.729-0.18-1.359-0.401-1.96-0.674l0.070 0.028c-0.326-0.126-0.605-0.307-0.838-0.535l0 0c-0.184-0.27-0.331-0.584-0.425-0.92l-0.005-0.022c-0.299-0.757-0.474-1.634-0.477-2.552v-0.001c0-0.936 0.291-1.407 0.895-1.407z"></path>
<path fill="#fff" style="fill: var(--color2, #fff)" d="M15.317 27.668c0.395-0.402 0.944-0.651 1.552-0.651 0.010 0 0.021 0 0.031 0l-0.002-0c1.221 0.007 2.208 0.999 2.208 2.221 0 0.619-0.253 1.179-0.661 1.581l-0 0c-0.401 0.4-0.954 0.647-1.564 0.647s-1.164-0.247-1.564-0.647l0 0c-0.402-0.404-0.651-0.961-0.651-1.576s0.249-1.172 0.651-1.576l-0 0z"></path>
<path fill="#fff" style="fill: var(--color2, #fff)" d="M28.069 19.073c-0.004-0.080-0.006-0.175-0.006-0.27 0-0.398 0.038-0.787 0.111-1.164l-0.006 0.038c0.105-0.407 0.459-0.581 1.058-0.616 1.163 0 2.047 0.616 2.646 1.867 0.234 0.472 0.409 1.020 0.496 1.597l0.004 0.031c0.12 0.765 0.189 1.65 0.192 2.55v0.003c0 0.031 0 0.067 0 0.104 0 0.722-0.047 1.433-0.137 2.13l0.009-0.082c-0.064 0.863-0.403 1.636-0.929 2.244l0.004-0.005c-0.503 0.558-1.229 0.907-2.036 0.907-0.014 0-0.028-0-0.042-0l0.002 0c-0.061 0.012-0.13 0.019-0.201 0.019-0.42 0-0.784-0.242-0.959-0.594l-0.003-0.006c-0.139-0.374-0.22-0.807-0.22-1.258 0-0.065 0.002-0.129 0.005-0.193l-0 0.009v-7.309zM21.417 29.47c-0.002 0.026-0.003 0.056-0.003 0.087 0 0.424 0.18 0.807 0.467 1.075l0.001 0.001c0.279 0.241 0.646 0.388 1.046 0.388 0.041 0 0.082-0.002 0.122-0.005l-0.005 0c0.279 0 1.053-0.047 2.326-0.157 0.331 0 0.884-0.047 1.663-0.047l1.744 0.116c0.692 0.058 1.291 0.087 1.803 0.087q3.681 0 5.681-2.216c1.378-1.541 2.070-3.599 2.070-6.193 0-0.036 0.001-0.078 0.001-0.12 0-1.538-0.341-2.996-0.952-4.304l0.026 0.063c-0.615-1.335-1.622-2.402-2.873-3.076l-0.035-0.017c-0.817-0.443-1.788-0.703-2.82-0.704h-0c-0.413 0-0.954 0-1.634 0.087s-1.343 0.093-1.884 0.116h-1.041c-0.133 0.003-0.289 0.004-0.446 0.004-0.82 0-1.63-0.044-2.427-0.129l0.099 0.009c-0.581-0.058-0.989-0.087-1.279-0.093-0.024-0.001-0.051-0.002-0.079-0.002-0.41 0-0.787 0.138-1.088 0.371l0.004-0.003c-0.317 0.25-0.518 0.635-0.518 1.066 0 0.018 0 0.036 0.001 0.053l-0-0.003c-0.001 0.019-0.002 0.041-0.002 0.063 0 0.569 0.373 1.051 0.888 1.214l0.009 0.002c0.224 0.074 0.416 0.161 0.597 0.264l-0.016-0.008c0.164 0.14 0.267 0.346 0.267 0.577 0 0.002 0 0.003 0 0.005v-0 4.454l-0.186 4.187c0 0.010 0 0.022 0 0.034 0 0.338-0.058 0.662-0.163 0.963l0.006-0.020c-0.183 0.247-0.419 0.444-0.692 0.577l-0.011 0.005c-0.404 0.241-0.67 0.676-0.67 1.172 0 0.019 0 0.038 0.001 0.057l-0-0.003z"></path>
<path fill="#fff" style="fill: var(--color2, #fff)" d="M39.478 27.668c0.402-0.397 0.955-0.642 1.564-0.642 1.227 0 2.222 0.992 2.227 2.217v0c0 0.003 0 0.006 0 0.009 0 1.23-0.997 2.227-2.227 2.227s-2.227-0.997-2.227-2.227c0-0.62 0.254-1.181 0.663-1.585l0-0z"></path>
<path fill="#fff" style="fill: var(--color2, #fff)" d="M58.214 26.121c-1.715 1.559-3.618 2.973-5.653 4.19l-0.162 0.090c-0.128 0.227-0.262 0.454-0.372 0.68s-0.262 0.32-0.395 0.32c-0.244 0-0.581-0.244-1.070-0.698-0.471-0.581-1.163-1.349-2.105-2.402 0.162-0.103 0.303-0.216 0.43-0.343l0-0c0.253-0.236 0.417-0.565 0.436-0.933l0-0.003 0.105-5.6c0-0.715-0.041-2.082-0.076-4.111 0-0.826-0.267-1.297-0.756-1.431l0.192-0.488c1.085 0.074 2.095 0.315 3.030 0.698l-0.065-0.023c1.163 0.454 1.745 0.942 1.745 1.465-0.022 0.282-0.157 0.528-0.359 0.697l-0.002 0.001c-0.142 0.163-0.229 0.378-0.229 0.613 0 0.042 0.003 0.084 0.008 0.124l-0.001-0.005-0.041 7.048c3.699-1.607 6.884-3.633 9.699-6.075l-0.046 0.039 0.395 0.302c-1.328 2.239-2.89 4.162-4.693 5.828l-0.017 0.016z"></path>
<path fill="#fff" style="fill: var(--color2, #fff)" d="M82.375 17.009c-0.129 0.185-0.34 0.305-0.58 0.305-0.067 0-0.132-0.009-0.193-0.027l0.005 0.001c-0.192 0-0.343-0.204-0.471-0.581-0.302-0.733-0.454-1.128-0.454-1.163-0.261-0.495-0.602-0.912-1.011-1.251l-0.007-0.005 0.128-0.244c0.816 0.176 1.535 0.507 2.155 0.964l-0.015-0.011c0.402 0.308 0.667 0.777 0.698 1.309l0 0.005c-0.004 0.265-0.095 0.507-0.246 0.7l0.002-0.003zM80.247 17.497c-0.136 0.195-0.359 0.32-0.612 0.32-0.057 0-0.113-0.006-0.167-0.019l0.005 0.001c-0.186 0-0.355-0.192-0.488-0.581-0.297-0.733-0.448-1.128-0.448-1.163-0.265-0.502-0.612-0.926-1.028-1.268l-0.007-0.006 0.134-0.244c0.823 0.186 1.547 0.525 2.173 0.988l-0.016-0.011c0.409 0.314 0.674 0.8 0.686 1.347l0 0.002c0 0 0 0 0 0 0 0.252-0.092 0.482-0.245 0.658l0.001-0.001zM77.508 21.748v0.547c0.007 0.157 0.010 0.341 0.010 0.526 0 1.588-0.279 3.11-0.79 4.521l0.029-0.092c-0.512 1.159-1.309 2.113-2.304 2.8l-0.022 0.014c-1.149 0.696-2.481 1.342-3.874 1.864l-0.167 0.055-0.302-0.454c1.476-0.844 2.643-2.081 3.38-3.568l0.022-0.049c0.602-1.418 0.952-3.067 0.952-4.798 0-0.178-0.004-0.354-0.011-0.53l0.001 0.025v-0.773c-0.715 0.093-1.675 0.244-2.838 0.471 0 0.262 0.035 0.75 0.093 1.465 0.041 0.581 0.058 0.942 0.058 1.070 0 1.744-0.547 2.611-1.617 2.628-0.032 0.003-0.068 0.004-0.106 0.004-0.495 0-0.929-0.262-1.17-0.655l-0.003-0.006c-0.25-0.4-0.398-0.886-0.398-1.407 0-0.039 0.001-0.078 0.002-0.117l-0 0.006c0-0.116 0-0.901 0.099-2.367-0.285 0.076-0.582 0.128-0.849 0.204-0.237 0.086-0.512 0.146-0.797 0.168l-0.011 0.001c-0.604-0.081-1.111-0.433-1.402-0.927l-0.005-0.009c-0.454-0.571-0.784-1.262-0.937-2.016l-0.005-0.031 0.32-0.343c0.425 0.208 0.926 0.394 1.447 0.533l0.059 0.013c0.029 0 0.064 0 0.099 0 0.787 0 1.558-0.074 2.304-0.216l-0.077 0.012v-0.343c0.009-0.172 0.014-0.373 0.014-0.576 0-0.525-0.035-1.042-0.102-1.548l0.006 0.059c-0.133-0.676-0.626-1.211-1.266-1.404l-0.013-0.003 0.134-0.454c0.582 0.076 1.221 0.134 1.838 0.192 0.803 0.082 1.538 0.302 2.205 0.639l-0.036-0.016c0.373 0.199 0.623 0.585 0.623 1.030 0 0.223-0.063 0.432-0.172 0.609l0.003-0.005c-0.18 0.399-0.284 0.865-0.285 1.355v0c0.582-0.058 1.524-0.169 2.803-0.355v-0.116c0.004-0.136 0.007-0.295 0.007-0.455 0-0.866-0.072-1.715-0.211-2.541l0.012 0.089c-0.090-0.581-0.5-1.048-1.042-1.218l-0.011-0.003 0.116-0.378c3.117 0.454 4.652 1.070 4.652 1.861-0.091 0.248-0.191 0.459-0.307 0.659l0.010-0.019c-0.178 0.321-0.282 0.704-0.282 1.111 0 0.043 0.001 0.086 0.003 0.128l-0-0.006v0.465c0.495-0.074 0.939-0.246 1.327-0.496l-0.013 0.008c0.162-0.115 0.364-0.185 0.581-0.186h0c0.685 0.059 1.285 0.381 1.707 0.863l0.003 0.003c0.582 0.581 0.768 1.128 0.582 1.576-0.227 0.581-1.012 0.884-2.326 0.866-0.174 0-0.791 0.017-1.75 0.017z"></path>
<path fill="#fff" style="fill: var(--color2, #fff)" d="M98.855 24.487c-0.093 0-0.465-0.041-1.163-0.134-0.591-0.070-1.277-0.11-1.971-0.11h-0c-0.901 0-2.198 0.035-3.89 0.093-1.803 0.093-2.855 0.169-3.152 0.227-0.299 0.105-0.554 0.225-0.795 0.366l0.022-0.012c-0.175 0.154-0.392 0.266-0.63 0.318l-0.009 0.002c-0.709 0-1.39-0.581-2.064-1.71-0.478-0.718-0.821-1.567-0.972-2.48l-0.005-0.038 0.488-0.151c0.134 0.452 0.497 0.796 0.951 0.9l0.009 0.002c0.253 0.053 0.543 0.083 0.841 0.083 0.087 0 0.173-0.003 0.258-0.008l-0.012 0.001c2.181 0 4.547-0.093 7.083-0.279l3.85-0.337c0.031-0.002 0.067-0.002 0.104-0.002 0.651 0 1.236 0.283 1.639 0.733l0.002 0.002c0.357 0.356 0.578 0.846 0.582 1.389v0.001c0.006 0.042 0.010 0.090 0.010 0.14 0 0.562-0.456 1.018-1.018 1.018-0.055 0-0.108-0.004-0.161-0.013l0.006 0.001z"></path>
<path fill="#fff" style="fill: var(--color2, #fff)" d="M4.478 8.624c0.11-0.21 0.175-0.459 0.175-0.723 0-0.016-0-0.031-0.001-0.047l0 0.002v-5.437c-0.005-0.464-0.053-0.913-0.141-1.348l0.008 0.045h1.965c-0.072 0.39-0.114 0.841-0.116 1.3v5.096c2.030-0.702 3.751-1.855 5.108-3.345l0.009-0.010 0.872 1.425c-1.595 1.692-3.602 2.977-5.863 3.695l-0.098 0.027c-0.272 0.084-0.509 0.197-0.726 0.338l0.011-0.007z"></path>
<path fill="#fff" style="fill: var(--color2, #fff)" d="M21.242 2.908c0.052 0.001 0.113 0.002 0.174 0.002 0.38 0 0.753-0.030 1.117-0.089l-0.040 0.005v1.628c-0.291 0-0.651 0-1.244 0h-0.581v0.331c0 2.448-0.628 4.070-3.204 5.233l-1.32-1.297c2.070-0.686 2.907-1.582 2.907-3.919v-0.378h-2.186v1.25c0 0.506 0 0.907 0.047 1.163h-1.745c0.041-0.348 0.064-0.75 0.064-1.159 0-0.002 0-0.003 0-0.005v0-1.25h-0.727c-0.582 0-0.872 0-1.163 0.041v-1.698c0.344 0.074 0.739 0.116 1.143 0.116 0.007 0 0.014 0 0.021-0h0.743v-0.861c-0.001-0.364-0.029-0.721-0.081-1.070l0.005 0.040h1.779c-0.047 0.306-0.079 0.666-0.087 1.031l-0 0.009v0.872h2.169v-0.994c0-0.027 0.001-0.059 0.001-0.091 0-0.329-0.023-0.652-0.069-0.969l0.004 0.036h1.779l-0.029 0.308 0.797-0.244c0.187 0.381 0.365 0.836 0.506 1.306l0.017 0.066-0.832 0.268c-0.158-0.555-0.323-1.013-0.513-1.457l0.030 0.079c-0.022 0.19-0.035 0.409-0.035 0.632 0 0.015 0 0.030 0 0.045v-0.002 1.018zM22.324 2.285c-0.173-0.562-0.351-1.024-0.555-1.472l0.031 0.077 0.814-0.256c0.175 0.373 0.355 0.835 0.506 1.31l0.023 0.085z"></path>
<path fill="#fff" style="fill: var(--color2, #fff)" d="M24.19 4.117c0.413 0 1.279 0.070 1.791 0.070h5.484c0.465 0 0.977-0.052 1.273-0.070v1.971c-0.267 0-0.849-0.064-1.273-0.064h-5.484c-0.581 0-1.367 0.035-1.791 0.064z"></path>
<path fill="#fff" style="fill: var(--color2, #fff)" d="M43.101 2.669c-0.15 0.235-0.285 0.505-0.391 0.79l-0.010 0.030c-0.419 1.301-1.029 2.43-1.808 3.419l0.017-0.023c-1.096 1.331-2.511 2.361-4.131 2.978l-0.068 0.023-1.489-1.32c1.674-0.433 3.1-1.325 4.18-2.533l0.007-0.008c0.621-0.722 1.092-1.591 1.356-2.547l0.011-0.047h-2.576c-0.753 0.944-1.611 1.759-2.567 2.445l-0.038 0.026-1.401-1.047c1.327-0.812 2.41-1.9 3.192-3.191l0.024-0.042c0.215-0.352 0.401-0.759 0.536-1.188l0.011-0.039 1.826 0.582c-0.238 0.331-0.483 0.75-0.64 1.023h1.663c0.002 0 0.004 0 0.007 0 0.362 0 0.712-0.049 1.044-0.14l-0.028 0.006z"></path>
<path fill="#fff" style="fill: var(--color2, #fff)" d="M47.683 1.047c-0.007 0.122-0.011 0.264-0.011 0.407s0.004 0.285 0.012 0.427l-0.001-0.020v3.489c0 0.262 0 0.698 0.041 0.965h-1.861c0-0.209 0.052-0.651 0.052-0.971v-3.489c0-0.198 0-0.582-0.041-0.814zM52.428 0.954c0 0.308-0.041 0.657-0.041 1.116v2.25c0 2.076-0.488 3.111-1.273 3.937-0.695 0.664-1.543 1.175-2.484 1.476l-0.046 0.013-1.314-1.384c0.994-0.169 1.862-0.619 2.543-1.264l-0.002 0.002c0.692-0.733 0.837-1.465 0.837-2.907v-2.122c0.001-0.038 0.001-0.084 0.001-0.129 0-0.348-0.022-0.691-0.063-1.027l0.004 0.040z"></path>
<path fill="#fff" style="fill: var(--color2, #fff)" d="M55.243 4.117c0.413 0 1.279 0.070 1.791 0.070h5.484c0.465 0 0.977-0.052 1.273-0.070v1.971c-0.267 0-0.849-0.064-1.273-0.064h-5.53c-0.581 0-1.367 0.035-1.791 0.064z"></path>
<path fill="#fff" style="fill: var(--color2, #fff)" d="M65.512 6.914c0.436 0.035 0.994 0.076 1.419 0.076h5.815c0.372 0 0.872-0.035 1.25-0.076v1.913c-0.401-0.041-0.93-0.070-1.25-0.070h-5.815c-0.424 0-1.006 0-1.419 0.070zM66.373 1.89c0.396 0.048 0.855 0.075 1.32 0.076h4.199c0.431-0.001 0.855-0.028 1.271-0.081l-0.050 0.005v1.82c-0.314 0-0.849-0.041-1.221-0.041h-4.187c-0.413 0-0.959 0-1.332 0.041z"></path>
<path fill="#fff" style="fill: var(--color2, #fff)" d="M79.916 6.658c1.693-0.979 3.042-2.388 3.922-4.079l0.026-0.055 0.971 1.744c-0.993 1.64-2.345 2.969-3.954 3.908l-0.053 0.029c-1.066 0.642-2.31 1.119-3.638 1.357l-0.067 0.010-1.064-1.651c1.44-0.186 2.742-0.631 3.909-1.29l-0.053 0.028zM80.247 3.28l-1.285 1.308c-0.783-0.807-1.622-1.548-2.515-2.222l-0.055-0.040 1.163-1.274c1.002 0.702 1.881 1.434 2.696 2.231l-0.004-0.004z"></path>
<path fill="#fff" style="fill: var(--color2, #fff)" d="M93.494 2.245l1.053 0.663c-0.149 0.243-0.284 0.523-0.391 0.817l-0.010 0.032c-0.42 1.299-1.030 2.425-1.809 3.413l0.018-0.023c-1.099 1.319-2.511 2.341-4.124 2.954l-0.068 0.023-1.489-1.326c1.674-0.432 3.1-1.324 4.18-2.533l0.007-0.008c0.618-0.721 1.088-1.588 1.35-2.541l0.011-0.046h-2.57c-0.755 0.943-1.612 1.757-2.567 2.445l-0.038 0.026-1.407-1.041c1.329-0.812 2.412-1.903 3.192-3.197l0.024-0.042c0.215-0.352 0.401-0.759 0.536-1.188l0.011-0.039 1.832 0.582c-0.238 0.331-0.488 0.756-0.645 1.023h1.669c0.004 0 0.008 0 0.013 0 0.332 0 0.654-0.042 0.961-0.122l-0.026 0.006c-0.231-0.484-0.461-0.89-0.716-1.278l0.024 0.040 0.971-0.395c0.262 0.384 0.622 1.058 0.808 1.419zM94.785 0c0.26 0.389 0.531 0.85 0.776 1.325l0.038 0.082-0.971 0.413c-0.264-0.552-0.535-1.019-0.838-1.462l0.024 0.037z"></path>
</symbol>
</defs>
</svg>
